# xmcd
#
# Track frame offsets:
#	150
#	13825
#	33412
#	50212
#	74897
#	93435
#	114170
#	130067
#	146212
#	167955
#	181297
#	194567
#	208792
#
# Disc length: 2952 seconds
#
# Revision: 1
# Processed by: cddbd v1.4PL0 Copyright (c) Steve Scherf et al.
# Submitted via: audiograbber 1.81.03
#
DISCID=cd0b860d
DTITLE=Mark Hodgson - Extreme Blues
DYEAR=1997
DGENRE=Blues
TTITLE0=Xpress Train
TTITLE1=Crazy Voodoo
TTITLE2=Tequila Quicksand
TTITLE3=Catch Me When I Fall
TTITLE4=Straight Line
TTITLE5=House Of Cards
TTITLE6=Spread It Around
TTITLE7=Mighty Big Shoes To Fill
TTITLE8=Our Sun Is Gonna Shine
TTITLE9=Panning For Gold In The Gutter
TTITLE10=Ridin' The Dog
TTITLE11=Big Foot Woman
TTITLE12=Flyright
EXTD=King Snake Records
EXTT0=
EXTT1=
EXTT2=
EXTT3=
EXTT4=
EXTT5=
EXTT6=
EXTT7=
EXTT8=
EXTT9=
EXTT10=
EXTT11=
EXTT12=
PLAYORDER=
